<?xml version="1.0" encoding="utf-8"?>
<!-- Generator: Adobe Illustrator 28.0.0, SVG Export Plug-In . SVG Version: 6.00 Build 0)  -->
<svg version="1.1" xmlns="http://www.w3.org/2000/svg" xmlns:xlink="http://www.w3.org/1999/xlink" x="0px" y="0px"
	 viewBox="0 0 500 500" style="enable-background:new 0 0 500 500;" xml:space="preserve">
<style type="text/css">
	.st0{opacity:0.66;fill:#E8DEDC;}
	.st1{fill:#827CBB;}
	.st2{fill:#5C53A2;}
	.st3{fill:#6F67BB;}
	.st4{opacity:0.5;fill:#B89692;}
	.st5{fill:#FAEBD9;}
	.st6{opacity:0.5;}
	.st7{opacity:0.28;fill:#88ADC7;}
	.st8{fill:#ED604E;}
	.st9{fill:#B89692;}
	.st10{fill:#B04434;}
	.st11{fill:#D84C3A;}
	.st12{fill:#ED7566;}
	.st13{fill:#FFA498;}
	.st14{fill:#F1E0CC;}
	.st15{fill:#5F9CA4;}
	.st16{opacity:0.5;fill:#93BBD7;}
	.st17{fill:#BFD8DC;}
	.st18{fill:#49848C;}
	.st19{fill:#D8E2EC;}
	.st20{fill:#436A90;}
	.st21{opacity:0.5;fill:#88ADC7;}
	.st22{fill:#A5BDD1;}
	.st23{fill:#2B4C6B;}
	.st24{fill:#FFFFFF;}
	.st25{fill:#EDB446;}
	.st26{fill:#F0D29B;}
	.st27{fill:#D08819;}
	.st28{fill:#5C9DBF;}
	.st29{fill:#4581A1;}
	.st30{fill:#5590B0;}
	.st31{fill:#41687E;}
	.st32{fill:#EDB047;}
	.st33{opacity:0.5;fill:#DBA49E;}
	.st34{fill:#FFD88E;}
	.st35{fill:#E0A435;}
	.st36{opacity:0.72;}
	.st37{fill:#899178;}
	.st38{fill:#B9C3AC;}
	.st39{fill:#798268;}
	.st40{opacity:0.93;fill:#B9C3AC;}
	.st41{opacity:0.38;fill:#B9C3AC;}
	.st42{fill:#DC708A;}
	.st43{fill:#CF6579;}
	.st44{fill:#BF4E6A;}
	.st45{fill:#EB869E;}
</style>
<g id="BACKGROUND">
</g>
<g id="OBJECTS">
	<g>
		<polygon class="st0" points="303.8,464.4 263.6,478.4 65.9,441 154,409.5 		"/>
		<g>
			<polygon class="st1" points="116.2,366.5 221.6,323.3 401.3,357.2 302.5,402.2 			"/>
			<polygon class="st2" points="157.6,362.9 222.7,334.7 360.8,360.7 298.8,389.8 			"/>
			<g>
				<path class="st3" d="M401.3,357.2l-0.2,3.9l-3.3,1.8l1.3,52.4l1.7-0.8l-0.1,3.7l-96.9,46.2c0,0-10.8-2.9-11.5-11.5
					c-0.9-12.1,10.2-50.7,10.2-50.7L401.3,357.2z"/>
			</g>
			<polygon class="st4" points="116.2,366.5 221.6,323.3 377.2,365 264.4,394.9 			"/>
			<g>
				<path class="st2" d="M303.8,464.4l-25.6-4.7l-5.9-1.1l-132.7-24.5l-5.8-1.1l-17.4-3.2c0,0-5.3-6.8-5.3-30.8
					c0-26.7,5.1-32.6,5.1-32.6l19.2,3.7l5.6,1.1l132,25.3l5.6,1.1l24,4.6c0,0-4.2,13.5-4.2,31.6
					C298.4,450.3,303.8,464.4,303.8,464.4z"/>
			</g>
			<path class="st5" d="M399.1,415.3l-91.9,43.9c0,0-3.8-9.5-4-27.9c-0.1-19.2,3.2-26.3,3.2-26.3l91.4-42.1L399.1,415.3z"/>
			<path class="st4" d="M304.4,413.1c0.5-2.3,2.1-8.1,2.1-8.1l91.4-42.1l0.2,7.2C398.1,370.1,329.2,403.4,304.4,413.1z"/>
			<g>
				<path class="st1" d="M278.2,459.7l-5.9-1.1c-3.8-28.7-1.5-50.4,0.6-62.1l5.6,1.1C276.5,409.1,274.2,431,278.2,459.7z"/>
			</g>
			<g>
				<path class="st1" d="M139.6,434.1c-5-30.3-1.7-52.6,1.3-62.9l-5.6-1.1c-3.7,10.4-6.1,32.1-1.5,62.9L139.6,434.1z"/>
			</g>
			<g class="st6">
				<path class="st7" d="M115.1,427.4c0.7,1.8,1.3,2.5,1.3,2.5l17.4,3.2l5.8,1.1l132.7,24.5l5.9,1.1l25.6,4.7c0,0-0.3-0.8-0.7-2.1
					C303.1,462.3,117.2,427.6,115.1,427.4z"/>
			</g>
		</g>
	</g>
	<g>
		<polygon class="st8" points="386.1,327.3 302.7,294.4 127.2,327.5 204,362.2 		"/>
		<polygon class="st9" points="356.9,315.8 302.7,294.4 127.2,327.5 173.3,348.4 280.2,351.4 		"/>
		<g>
			<path class="st10" d="M127.2,327.5l0.2,3.8l3.2,1.7l-1.2,25.4l-1.7-0.8l0.1,3.6l75,35.9c0,0,3.1-1.5,3.8-9.9
				c0.9-11.9-2.5-25.1-2.5-25.1L127.2,327.5z"/>
		</g>
		<polygon class="st11" points="204,362.2 202.7,397.2 385.8,363.4 386.1,327.3 		"/>
		<polygon class="st12" points="241.4,355 233,356.6 233,391.5 241.4,390 		"/>
		<polygon class="st12" points="256.6,352.1 246.3,354.1 246.3,389.1 256.6,387.2 		"/>
		<polygon class="st13" points="163.5,320.6 155.1,322.2 233,356.4 241.4,354.9 		"/>
		<polygon class="st13" points="178.7,317.6 168.4,319.6 246.3,354 256.6,352.1 		"/>
		<polygon class="st13" points="263.8,301.4 255.4,303 333.3,337.3 341.7,335.7 		"/>
		<polygon class="st13" points="279,298.5 268.7,300.5 346.6,334.8 356.9,332.9 		"/>
		<polygon class="st12" points="356.9,332.9 348.5,334.5 348.5,370.2 356.9,368.7 		"/>
		<polygon class="st12" points="344,335.4 333.7,337.3 333.7,373.1 344,371.2 		"/>
		<polygon class="st14" points="129.3,358.5 199.4,392.1 200.1,365 130.5,333.1 		"/>
		<polygon class="st4" points="130.1,342.6 199.9,374.8 200.1,365 130.5,333.1 		"/>
	</g>
	<g>
		<polygon class="st15" points="108,298.7 186.2,262.3 351.1,284.1 279,320.8 		"/>
		<polygon class="st16" points="118.9,293.8 186.2,262.3 351.1,284.1 285.3,317.6 		"/>
		<g>
			<path class="st17" d="M351.1,284.1l-0.2,3.6l-3,1.8l1.2,21.6l1.6-0.8l-0.1,3.4l-70.4,37.7c0,0-9.9-2.1-10.5-10
				c-0.8-11.1,9.4-20.6,9.4-20.6L351.1,284.1z"/>
		</g>
		<path class="st18" d="M279,320.8c0,0-4.6,2.5-4.4,16.6c0.1,8.8,5.6,14,5.6,14l-172-22c0,0-5.4-5.3-5.4-15.1
			c-0.1-10.2,5.2-15.6,5.2-15.6L279,320.8z"/>
		<g>
			<polygon class="st15" points="147.1,315.1 142.1,319.6 147.1,325.3 152.1,320.8 			"/>
			<polygon class="st15" points="162.4,317 157.4,321.5 162.4,327.2 167.5,322.8 			"/>
			<polygon class="st15" points="177.8,319 172.8,323.4 177.8,329.1 182.8,324.7 			"/>
			<polygon class="st15" points="193.2,320.9 188.1,325.3 193.2,331 198.2,326.6 			"/>
			<polygon class="st15" points="208.5,322.8 203.5,327.2 208.5,333 213.5,328.5 			"/>
			<polygon class="st15" points="223.9,324.7 218.9,329.2 223.9,334.9 228.9,330.4 			"/>
		</g>
		<polygon class="st14" points="349.1,311.1 283.3,346.5 282.6,323.2 348,289.5 		"/>
		<polygon class="st19" points="349.1,295.1 283,336.4 282.6,323.2 348,289.5 		"/>
	</g>
	<g>
		<polygon class="st20" points="148,252 228.7,220.8 391.7,251.2 316.9,284.1 		"/>
		<polygon class="st21" points="148,252 228.7,220.8 377.2,248.6 367.1,262 297.7,280.3 		"/>
		<g>
			<path class="st22" d="M391.7,251.2l-0.4,3.6l-3.1,1.6l0.2,26.8l1.6-0.7l-0.4,3.4l-73.1,33.9c0,0-9.8-8.7-9.8-16.5
				c0-11.1,10.3-19.3,10.3-19.3L391.7,251.2z"/>
		</g>
		<path class="st23" d="M316.9,284.1c0,0-4.1,4.5-4.1,15.2c0,11.3,3.6,20.6,3.6,20.6l-170-31c0,0-6.1-15.6-5.4-25.4
			c0.7-10.2,6.9-11.5,6.9-11.5L316.9,284.1z"/>
		<path class="st21" d="M316.9,284.1l-169-32c0,0-6.3,1.3-6.9,11.5c-0.2,3.8,0.5,7.8,1.5,11.3C173.2,275.2,316.9,284.1,316.9,284.1z
			"/>
		<path class="st24" d="M388.3,283.3l-68.4,31.8c0,0-2.2-9.3-2.2-16.6c0-9,2.7-11.9,2.7-11.9l67.7-30.2L388.3,283.3z"/>
		<path class="st4" d="M388.1,258.4l0-1.9l-67.7,30.2c0,0-2.7,2.9-2.7,11.9c0,0.8,0,1.6,0.1,2.3
			C325.6,295.8,372.5,267.4,388.1,258.4z"/>
	</g>
	<g>
		<polygon class="st25" points="373.8,237.5 295.6,206.6 130.7,237.7 202.8,270.3 		"/>
		<polygon class="st4" points="359.7,236.3 295.6,206.6 144.7,235 214.7,263.1 		"/>
		<polygon class="st24" points="342.1,236.3 291,214.9 228.7,226.8 276.3,249.2 		"/>
		<g>
			<path class="st26" d="M130.7,237.7l0.2,3.6l3,1.6l-1.2,13.4l-1.6-0.7l0.1,3.4l70.4,33.7c0,0,9.9-2.7,10.5-10.6
				c0.8-11.1-9.4-11.9-9.4-11.9L130.7,237.7z"/>
		</g>
		<path class="st27" d="M202.8,270.3c0,0,4,3.9,3.3,12.8c-0.5,6.1-4.5,9.7-4.5,9.7l172-31.8c0,0,6.2-1.5,6.2-11.4
			c0.1-10.2-6-12.1-6-12.1L202.8,270.3z"/>
		<path class="st5" d="M132.7,256.3l65.9,31.6c0,0,3.1,0,3.1-6.9c0-4.6-2.4-8.2-2.4-8.2l-65.4-30L132.7,256.3z"/>
		<path class="st4" d="M200.7,275.8c-0.7-1.8-1.5-3-1.5-3l-65.4-30l-0.3,3.5C133.6,246.4,177.9,267,200.7,275.8z"/>
	</g>
	<g>
		<polygon class="st28" points="398,193.2 314.7,160.3 139.1,193.4 215.9,228.1 		"/>
		<polygon class="st21" points="352.6,202.3 269.3,169.4 139.1,193.4 232.1,225 		"/>
		<g>
			<path class="st29" d="M139.1,193.4l0.2,3.8l3.2,1.7l-1.2,25.4l-1.7-0.8l0.1,3.6l75,35.9c0,0,3.1-1.5,3.8-9.9
				c0.9-11.9-2.5-25.1-2.5-25.1L139.1,193.4z"/>
		</g>
		<polygon class="st30" points="215.9,228.1 214.7,263.1 397.8,229.3 398,193.2 		"/>
		<polygon class="st31" points="268.6,217.9 242.9,222.6 242.9,257.6 268.6,253 		"/>
		<polygon class="st31" points="373.8,197.7 345.6,203.2 345.6,239 373.8,233.6 		"/>
		<polygon class="st31" points="268.6,217.9 242.9,222.6 160.7,188.5 186.4,184 		"/>
		<polygon class="st31" points="373.8,197.7 345.6,203.2 263.5,170 291.7,164.5 		"/>
		<polygon class="st14" points="141.3,224.3 211.4,258 212.1,230.8 142.5,199 		"/>
		<polygon class="st4" points="142.1,208.5 211.9,240.7 212.1,230.8 142.5,199 		"/>
	</g>
	<g>
		<polygon class="st32" points="117.9,157.6 200,126.2 361.3,164.3 285.1,193.6 		"/>
		<polygon class="st33" points="117.9,157.6 200,126.2 347,161 266.5,189.6 		"/>
		<g>
			<polygon class="st34" points="361.3,164.3 360.7,167.9 357.5,169.4 356.7,198.2 356.6,197.1 358.3,197.6 357.8,200.9 
				283.2,231.4 285.1,193.6 			"/>
		</g>
		<polygon class="st35" points="285.1,193.6 283.2,231.4 116.9,193.3 117.9,157.6 		"/>
		<g class="st36">
			<polygon class="st24" points="145.4,185.9 148.3,183.7 145.4,180.1 145.3,176 141.2,175.1 138.3,171.6 135.4,173.9 131.3,173 
				131.3,177.1 128.4,179.4 131.4,182.9 131.4,187 135.5,187.9 138.5,191.4 141.4,189.2 145.5,190 			"/>
			<polygon class="st24" points="185.5,194.6 188.4,192.3 185.4,188.8 185.4,184.7 181.3,183.8 178.3,180.2 175.4,182.5 
				171.3,181.6 171.4,185.7 168.5,188 171.4,191.6 171.4,195.7 175.6,196.5 178.5,200.1 181.4,197.8 185.5,198.7 			"/>
			<polygon class="st24" points="225.5,203.2 228.4,201 225.5,197.4 225.4,193.3 221.3,192.4 218.4,188.9 215.5,191.2 211.4,190.3 
				211.4,194.4 208.5,196.7 211.4,200.2 211.5,204.3 215.6,205.2 218.5,208.7 221.4,206.5 225.5,207.4 			"/>
			<polygon class="st24" points="265.5,211.9 268.4,209.6 265.5,206.1 265.5,202 261.3,201.1 258.4,197.6 255.5,199.8 251.4,198.9 
				251.4,203 248.5,205.3 251.5,208.9 251.5,213 255.6,213.9 258.6,217.4 261.5,215.1 265.6,216 			"/>
		</g>
		<polygon class="st24" points="356.7,198.2 286.9,226.8 288.4,196.3 357.5,169.4 		"/>
		<path class="st4" d="M357.4,171.3l0.1-1.9l-69.1,26.9l-0.3,5.2C288,201.5,341.4,179.5,357.4,171.3z"/>
	</g>
	<g>
		<polygon class="st37" points="131.6,120 250.3,95.8 368.1,126.7 252.3,151.7 		"/>
		<polygon class="st38" points="177.1,121.5 250.3,106.3 301.1,120 228.7,135.6 		"/>
		<g>
			<path class="st38" d="M368.1,126.7l-0.2,3.5l-2.9,1.6l1.1,23.2l0-1l1.4,0.8l0.1,2.8l-114.1,26c0,0-2.9-1.4-3.4-9.1
				c-0.8-10.9,2.3-23,2.3-23L368.1,126.7z"/>
		</g>
		<polygon class="st39" points="252.3,151.7 253.4,183.7 131.8,152.2 131.6,120 		"/>
		<polygon class="st38" points="144.6,130.2 234.2,154.3 234.2,173.4 144.6,148.4 		"/>
		<polygon class="st40" points="139.8,118.3 250.3,95.8 356.9,123.8 220.5,143.3 		"/>
		<polygon class="st24" points="366.1,155.1 256.5,179.1 255.8,154.2 365,131.8 		"/>
		<polygon class="st41" points="365.4,133.7 255.8,163.4 255.8,154.2 365,131.8 		"/>
	</g>
	<g>
		<polygon class="st42" points="352.6,87 271.9,55.8 108.9,86.2 183.6,119 		"/>
		<g>
			<path class="st43" d="M108.9,86.2l0.4,3.6l3.1,1.6l-0.2,20.8l-1.6-0.7l0.4,3.4l73.1,33.9c0,0,6.6-2.2,6-13.1
				c-0.8-13.1-6.5-16.7-6.5-16.7L108.9,86.2z"/>
		</g>
		<path class="st44" d="M183.6,119c0,0,4.1,4.5,4.1,15.2c0,11.3-3.6,14.6-3.6,14.6l170-31c0,0,5.1-5.6,4.4-15.4
			c-0.7-10.2-5.9-15.5-5.9-15.5L183.6,119z"/>
		<path class="st14" d="M112.3,112.2l68.4,31.8c0,0,2.2-3.3,2.2-10.6c0-9-2.7-11.9-2.7-11.9l-67.7-30.2L112.3,112.2z"/>
		<path class="st4" d="M112.5,93.3l0-1.9l67.7,30.2c0,0,2,2.2,2.5,8.7C182.8,130.3,128.1,102.3,112.5,93.3z"/>
		<path class="st43" d="M318.1,110.6c-0.8,4.2-22.2,11.2-47.9,15.5c-25.7,4.3-45.8,4.4-45,0.2c0.8-4.2,22.2-11.2,47.9-15.5
			C298.7,106.4,318.9,106.3,318.1,110.6z"/>
		
			<ellipse transform="matrix(0.9955 -9.499931e-02 9.499931e-02 0.9955 -7.151 22.1747)" class="st45" cx="229.3" cy="86.2" rx="59.2" ry="12.4"/>
	</g>
</g>
</svg>
