<?xml version="1.0" encoding="utf-8"?>
<!-- Generator: Adobe Illustrator 28.0.0, SVG Export Plug-In . SVG Version: 6.00 Build 0)  -->
<svg version="1.1" id="Camada_1" xmlns="http://www.w3.org/2000/svg" xmlns:xlink="http://www.w3.org/1999/xlink" x="0px" y="0px"
     viewBox="0 0 512 512" style="enable-background:new 0 0 512 512;" xml:space="preserve">
<style type="text/css">
	.st0{fill:#E44C3C;}
	.st1{fill:#324559;}
	.st2{fill:#803034;}
	.st3{fill:#EBEEEF;}
	.st4{fill:#F7E8AF;}
</style>
    <g>
	<path class="st0" d="M173,0c5.3,0,10.7,0,16,0c-0.1,0.1-0.2,0.2-0.3,0.4c-0.1,0.1-0.1,0.2-0.2,0.4c1.4,0.4,2.8,1,4.2,1.3
		c25.2,4.5,50.5,8.9,75.7,13.3c60,10.6,119.9,21.2,179.9,31.7c11,1.9,22,3.6,31.8,9.4c14.7,8.7,24.4,21.2,29.5,37.5
		c0.4,1.1,1.6,2,2.4,3c0,9.3,0,18.7,0,28c-0.3-0.1-0.7-0.2-1.1-0.3c-0.1,0-0.3,0.2-0.3,0.3c-1.4,7.5-2.8,15-4.1,22.5
		c-5.5,31.3-11.1,62.7-16.6,94c-5.2,29.2-10.3,58.4-15.5,87.7c-3.6,20.2-7.1,40.5-10.6,60.7c-0.2-1.5-0.5-2.9-0.7-4.4
		c-3.1-30.8-23-52.7-53.3-58.5c-12.2-2.3-24.6-4.1-36.8-6.3c-78.8-13.9-157.7-27.7-236.5-41.7c-10-1.8-17.3,1.3-22.3,9.9
		c0-0.7,0-1.3,0.1-2c8.1-45.9,16.2-91.7,24.3-137.6c3.2-18.3,6.3-36.7,9.4-55.1c0.3-1,0.7-1.9,0.8-2.9c4.4-25,8.8-50,13.2-75
		c1.1-6.3,3.9-11.2,9.6-14.3C172.2,1.7,172.5,0.7,173,0z M168.9,231c-0.2,6.8,2.8,9.6,10.6,10.9c22,3.8,43.9,7.7,65.9,11.5
		c37.4,6.6,74.7,13.2,112.1,19.7c6.6,1.2,10.4-1.4,11.5-7.8c5-28,10-56,14.9-84.1c1.4-7.8-1.1-11.1-9-12.5
		c-59.5-10.6-118.9-21.1-178.4-31.6c-7.6-1.3-11.2,1.3-12.5,9.1c-2.9,16.2-5.8,32.4-8.7,48.6C173,207.2,170.9,219.5,168.9,231z
		 M399.3,92.2c6.2,0.1,10-2.9,10.5-7.6c0.5-4.3-2.4-8.3-7.1-9.5c-1.6-0.4-3.3-0.7-4.9-1c-56.4-10-112.8-19.9-169.2-29.8
		c-8.4-1.5-16.7-3.1-25.1-4.2c-5.6-0.8-9.6,2.2-10.4,7c-0.8,4.8,2.1,8.8,7.5,10.1c1.1,0.3,2.3,0.5,3.4,0.7
		c52.8,9.3,105.6,18.6,158.4,27.9C375,88,387.7,90.2,399.3,92.2z M367.4,120.9c0-4.8-3-7.9-9-8.9c-42.5-7.5-84.9-15-127.4-22.4
		c-1.4-0.3-3-0.4-4.4,0c-4.4,1.2-6.8,4.1-6.7,8.7c0.1,4.7,3.1,7.7,8.7,8.7c24.3,4.3,48.5,8.6,72.8,12.8c18.4,3.2,36.7,6.5,55.1,9.6
		C362.6,130.5,367.4,126.6,367.4,120.9z"/>
        <path class="st1" d="M147.9,94.2c-3.1,18.4-6.2,36.7-9.4,55.1c-8.1,45.9-16.2,91.7-24.3,137.6c-0.1,0.6-0.1,1.3-0.1,2
		c-3.8,10.8,1,19.8,13.3,24.7c-3,17.2-6,34.3-9,51.5c-1,0-2,0-3,0.1c-9.6,0.5-17,7.1-17.6,15.8c-0.7,10,4.7,17.2,14.7,19.3
		c5,1,10.1,1.8,15.2,2.8c16,2.9,32,5.9,47.9,8.9c-22.8,4.1-45.5,8.1-68.3,12.2c-9.2,1.6-16,6.5-20,14.9c-4.9,10.4-3.1,20.3,4,28.9
		c5.4,6.5,13.5,10.2,21.6,8.9c26.6-4,52.9-9.2,79.4-13.9c45.1-8,90.2-16,135.3-24c12.3,2,24.6,4,36.9,5.9
		c16.3,2.6,32.5,7.6,49.3,4.4c-2,7.7-7.3,11.6-14.8,13c-35.7,6.3-71.4,12.6-107.1,19c-54.2,9.6-108.4,19.1-162.6,28.8
		c-1.6,0.3-3,1.5-4.5,2.2c-9,0-18,0-27,0c-1.2-0.9-2.4-2.1-3.8-2.5c-23.3-7.6-38.5-23.2-43.2-47.3c-7.3-37.2-13.4-74.7-20.1-112
		c-9.6-54.2-19.1-108.5-28.8-162.7c-0.3-1.6-1.4-3-2.2-4.5c0-7,0-14,0-21c0.7-1.1,1.8-2.1,2.2-3.4c7.5-26.6,24.7-42.8,51.9-47.8
		C85.3,105,116.7,99.7,147.9,94.2z"/>
        <path class="st2" d="M463.8,389.9c-2.1,16.6-7.7,31.5-20.2,43.4c-8.5,8-18.6,12.8-29.6,15.8c-16.8,3.2-33-1.9-49.3-4.4
		c-12.3-1.9-24.6-4-36.9-5.9c-8.4-1.6-16.9-3.2-25.3-4.7c-25.6-4.6-51.2-9.1-76.8-13.6c-16.6-2.9-33.3-5.7-49.9-8.6
		c-16-3-32-5.9-47.9-8.9c-5.1-0.9-10.1-1.7-15.2-2.8c-10-2.1-15.5-9.3-14.7-19.3c0.6-8.7,8-15.3,17.6-15.8c1,0,2,0,3-0.1
		c6.5,1.3,13,2.7,19.5,3.9c52.6,9.3,105.2,18.5,157.7,27.7c33.6,5.9,67.1,11.9,100.8,17.6c14.5,2.5,28.3-7.2,30.5-20.8
		c2.5-15.3-6.5-28.4-21.8-31.2c-28.5-5.2-57-10.1-85.5-15.1c-43.3-7.6-86.5-15.2-129.8-22.8c-20.8-3.6-41.6-7.2-62.5-10.7
		c-12.3-4.9-17.1-13.9-13.3-24.7c5.1-8.6,12.3-11.7,22.3-9.9c78.8,14,157.6,27.9,236.5,41.7c12.3,2.2,24.6,4,36.8,6.3
		c30.4,5.8,50.2,27.7,53.3,58.5C463.3,387,463.5,388.4,463.8,389.9z"/>
        <path class="st3" d="M168.9,231c2-11.5,4.1-23.8,6.3-36.1c2.9-16.2,5.8-32.4,8.7-48.6c1.4-7.7,5-10.4,12.5-9.1
		c59.5,10.5,118.9,21,178.4,31.6c7.9,1.4,10.4,4.7,9,12.5c-4.9,28-9.9,56-14.9,84.1c-1.1,6.4-5,9-11.5,7.8
		c-37.4-6.5-74.7-13.2-112.1-19.7c-22-3.9-43.9-7.7-65.9-11.5C171.8,240.6,168.8,237.9,168.9,231z"/>
        <path class="st1" d="M399.3,92.2c-11.6-2-24.2-4.2-36.8-6.4C309.6,76.5,256.8,67.2,204,57.8c-1.1-0.2-2.3-0.4-3.4-0.7
		c-5.3-1.3-8.3-5.3-7.5-10.1c0.8-4.8,4.8-7.8,10.4-7c8.4,1.2,16.8,2.7,25.1,4.2c56.4,9.9,112.8,19.9,169.2,29.8
		c1.6,0.3,3.3,0.6,4.9,1c4.7,1.2,7.6,5.1,7.1,9.5C409.2,89.3,405.4,92.3,399.3,92.2z"/>
        <path class="st1" d="M367.4,120.9c0,5.7-4.8,9.6-10.9,8.5c-18.4-3.1-36.7-6.4-55.1-9.6c-24.3-4.3-48.5-8.6-72.8-12.8
		c-5.6-1-8.6-4-8.7-8.7c-0.1-4.6,2.3-7.5,6.7-8.7c1.4-0.4,3-0.2,4.4,0c42.5,7.4,84.9,14.9,127.4,22.4
		C364.4,113,367.4,116.1,367.4,120.9z"/>
        <path class="st4" d="M127.4,313.6c20.8,3.6,41.6,7.1,62.5,10.7c43.3,7.6,86.5,15.2,129.8,22.8c28.5,5,57,9.9,85.5,15.1
		c15.3,2.8,24.3,15.9,21.8,31.2c-2.2,13.6-16,23.3-30.5,20.8c-33.6-5.7-67.2-11.7-100.8-17.6c-52.6-9.2-105.2-18.4-157.7-27.7
		c-6.5-1.2-13-2.6-19.5-3.9C121.5,347.9,124.5,330.7,127.4,313.6z"/>
        <path class="st4" d="M175.8,411.8c16.6,2.9,33.3,5.7,49.9,8.6c25.6,4.5,51.2,9,76.8,13.6c8.4,1.5,16.9,3.1,25.3,4.7
		c-45.1,8-90.2,16-135.3,24c-26.5,4.7-52.8,9.9-79.4,13.9c-8.1,1.2-16.2-2.4-21.6-8.9c-7.1-8.5-8.9-18.5-4-28.9
		c4-8.4,10.8-13.3,20-14.9C130.3,420,153,415.9,175.8,411.8z"/>
</g>
</svg>
