<?xml version="1.0" encoding="utf-8"?>
<!-- Generator: Adobe Illustrator 28.0.0, SVG Export Plug-In . SVG Version: 6.00 Build 0)  -->
<svg version="1.1" xmlns="http://www.w3.org/2000/svg" xmlns:xlink="http://www.w3.org/1999/xlink" x="0px" y="0px"
	 viewBox="0 0 500 500" style="enable-background:new 0 0 500 500;" xml:space="preserve">
<style type="text/css">
	.st0{fill:#F0DEFF;}
	.st1{fill:#FFCD01;}
	.st2{fill:#FF692D;}
	.st3{fill:#546CFF;}
	.st4{fill:#D7A4FE;}
	.st5{fill:none;stroke:#1D1141;stroke-linecap:round;stroke-linejoin:round;stroke-miterlimit:10;}
	.st6{fill:#FFFFFF;}
	.st7{fill:none;stroke:#FFFFFF;stroke-linecap:round;stroke-linejoin:round;stroke-miterlimit:10;}
	.st8{fill:#1D1141;}
	.st9{fill:#FFC9B1;}
	.st10{fill:none;stroke:#F0DEFF;stroke-linecap:round;stroke-linejoin:round;stroke-miterlimit:10;}
	.st11{fill:#A77456;}
</style>
<g id="BACKGROUND">
</g>
<g id="OBJECTS">
	<g>
		<g>
			
				<ellipse transform="matrix(0.6076 -0.7943 0.7943 0.6076 -51.7638 283.601)" class="st0" cx="261.1" cy="194.2" rx="118.5" ry="108.3"/>
			<ellipse class="st0" cx="267.7" cy="438" rx="209.1" ry="5.6"/>
		</g>
		<g>
			<polygon class="st1" points="48.6,288.8 42.9,298.6 54.3,298.6 			"/>
			<polygon class="st2" points="432.7,273.2 427.1,283 438.4,283 			"/>
			<polygon class="st3" points="395.3,115.4 401,105.6 389.6,105.6 			"/>
			<path class="st2" d="M313.3,69.4l-3.1-2.5c0.9-1.2,1.3-2.9,1-4.6c-0.3-1.7-1.3-3.2-2.5-3.9l2-3.4c2.3,1.4,3.9,3.8,4.4,6.7
				C315.7,64.5,315.1,67.3,313.3,69.4z"/>
			<path class="st3" d="M253,123.2c-0.8-2.6-0.3-5.5,1.3-7.9c1.6-2.5,4-4.1,6.7-4.4l0.5,4c-1.5,0.2-2.9,1.2-3.9,2.6
				c-0.9,1.4-1.2,3.2-0.8,4.6L253,123.2z"/>
			<path class="st2" d="M158.5,67.9c-0.7,0-1.5-0.1-2.2-0.3l1-3.9c1.4,0.4,3.2,0,4.6-1c1.4-1,2.4-2.5,2.5-3.9l4,0.4
				c-0.3,2.7-1.8,5.2-4.2,6.8C162.5,67.2,160.5,67.9,158.5,67.9z"/>
			<path class="st3" d="M72.7,242.4c-1.6,0-3.3-0.4-4.9-1.3c-2.6-1.4-4.3-3.7-4.9-6.4l3.9-0.8c0.3,1.5,1.4,2.8,2.9,3.7
				c1.5,0.8,3.3,1,4.7,0.5l1.4,3.7C74.9,242.2,73.8,242.4,72.7,242.4z"/>
			<path class="st1" d="M433.4,229.9l-2.8-2.9c1.1-1,1.6-2.7,1.5-4.4c-0.1-1.7-0.9-3.3-2.1-4.2l2.4-3.2c2.2,1.6,3.5,4.2,3.7,7.1
				S435.4,228,433.4,229.9z"/>
			<path class="st1" d="M336.2,112.1c-0.5-2.6,0.3-5.5,2.1-7.7c1.8-2.3,4.4-3.6,7.1-3.7l0.1,4c-1.5,0.1-3,0.9-4.1,2.2
				c-1.1,1.3-1.6,3-1.3,4.5L336.2,112.1z"/>
		</g>
	</g>
	<g>
		<g>
			<g>
				<g>
					<path class="st4" d="M183.1,206.4v12.4c0,2.6,2.1,4.7,4.7,4.7H298v-21.8H187.8C185.2,201.6,183.1,203.8,183.1,206.4z"/>
					<path class="st0" d="M241.7,206.4v12.4c0,2.6,2.1,4.7,4.7,4.7H298v-21.8h-51.5C243.8,201.6,241.7,203.8,241.7,206.4z"/>
				</g>
				<rect x="193.8" y="209.5" class="st5" width="37.3" height="5.7"/>
			</g>
			<g>
				<path class="st3" d="M300.4,194v2.9c0,2.6-2.1,4.7-4.7,4.7H185.5v-12.3h110.1C298.3,189.3,300.4,191.4,300.4,194z"/>
				<path class="st6" d="M241.8,194v2.9c0,2.6-2.1,4.7-4.7,4.7h-51.5v-12.3h51.5C239.7,189.3,241.8,191.4,241.8,194z"/>
			</g>
			<g>
				<g>
					<path class="st2" d="M202.2,262.1v36.2c0,2.6,2.1,4.7,4.7,4.7H326v-45.6H206.9C204.3,257.4,202.2,259.5,202.2,262.1z"/>
					<path class="st0" d="M265.4,262.1v36.2c0,2.6,2.1,4.7,4.7,4.7H326v-45.6h-55.9C267.5,257.4,265.4,259.5,265.4,262.1z"/>
				</g>
				<line class="st5" x1="257" y1="264.2" x2="257" y2="286.4"/>
				<line class="st5" x1="250.4" y1="264.2" x2="250.4" y2="287.8"/>
			</g>
			<g>
				<g>
					<path class="st1" d="M310,237.6v15.1c0,2.6-2.1,4.7-4.7,4.7H188.9v-24.5h116.3C307.9,232.9,310,235,310,237.6z"/>
					<path class="st0" d="M248.2,237.6v15.1c0,2.6-2.1,4.7-4.7,4.7h-54.6v-24.5h54.6C246.1,232.9,248.2,235,248.2,237.6z"/>
				</g>
				<g>
					<line class="st7" x1="194.2" y1="238.2" x2="243" y2="238.2"/>
					<line class="st7" x1="194.2" y1="242.2" x2="243" y2="242.2"/>
					<line class="st7" x1="194.2" y1="246.3" x2="243" y2="246.3"/>
				</g>
			</g>
			<g>
				<path class="st2" d="M192.3,228.2L192.3,228.2c0,2.6,2.1,4.7,4.7,4.7h116.3v-9.4H197C194.4,223.5,192.3,225.6,192.3,228.2z"/>
				<path class="st6" d="M254.1,228.2L254.1,228.2c0,2.6,2.1,4.7,4.7,4.7h54.6v-9.4h-54.6C256.2,223.5,254.1,225.6,254.1,228.2z"/>
			</g>
			<g>
				<path class="st8" d="M195.6,307.8v7c0,2.6,2.1,4.7,4.7,4.7h119.1v-16.5H200.3C197.7,303.1,195.6,305.2,195.6,307.8z"/>
				<path class="st9" d="M258.8,307.8v7c0,2.6,2.1,4.7,4.7,4.7h55.9v-16.5h-55.9C260.9,303.1,258.8,305.2,258.8,307.8z"/>
			</g>
			<g>
				<path class="st4" d="M187.7,324.2v14c0,2.6,2.1,4.7,4.7,4.7h123v-23.5h-123C189.8,319.5,187.7,321.6,187.7,324.2z"/>
				<path class="st9" d="M252.9,324.2v14c0,2.6,2.1,4.7,4.7,4.7h57.8v-23.5h-57.8C255,319.5,252.9,321.6,252.9,324.2z"/>
			</g>
			<g>
				<path class="st1" d="M193.7,347.7v1.8c0,2.6,2.1,4.7,4.7,4.7h123V343h-123C195.8,343,193.7,345.1,193.7,347.7z"/>
				<path class="st9" d="M258.9,347.7v1.8c0,2.6,2.1,4.7,4.7,4.7h57.8V343h-57.8C261,343,258.9,345.1,258.9,347.7z"/>
			</g>
			<g>
				<path class="st3" d="M193.7,358.8v9c0,2.6,2.1,4.7,4.7,4.7h123v-18.4h-123C195.8,354.1,193.7,356.2,193.7,358.8z"/>
				<path class="st0" d="M258.9,358.8v9c0,2.6,2.1,4.7,4.7,4.7h57.8v-18.4h-57.8C261,354.1,258.9,356.2,258.9,358.8z"/>
			</g>
		</g>
		<g>
			<g>
				<g>
					<path class="st1" d="M361.1,347.7v10.8c0,2.7-2.2,4.8-4.8,4.8H242.3v-20.5h113.9C358.9,342.9,361.1,345.1,361.1,347.7z"/>
					<path class="st6" d="M300.5,347.7v10.8c0,2.7-2.2,4.8-4.8,4.8h-53.3v-20.5h53.3C298.3,342.9,300.5,345.1,300.5,347.7z"/>
				</g>
				<g>
					<line class="st10" x1="247" y1="347.5" x2="295.8" y2="347.5"/>
					<line class="st10" x1="247" y1="351.6" x2="295.8" y2="351.6"/>
				</g>
			</g>
			<g>
				<g>
					<path class="st1" d="M226.2,286.2v14.2c0,2.7,2.2,4.8,4.8,4.8h109.2v-23.8H231C228.4,281.3,226.2,283.5,226.2,286.2z"/>
					<path class="st0" d="M284.4,286.2v14.2c0,2.7,2.2,4.8,4.8,4.8h51v-23.8h-51C286.6,281.3,284.4,283.5,284.4,286.2z"/>
				</g>
				<g>
					<line class="st7" x1="290.1" y1="286.8" x2="334.6" y2="286.8"/>
					<line class="st7" x1="290.1" y1="290.9" x2="334.6" y2="290.9"/>
					<line class="st7" x1="290.1" y1="294.9" x2="334.6" y2="294.9"/>
				</g>
				<line class="st5" x1="277.2" y1="286.4" x2="277.2" y2="300.7"/>
				<line class="st5" x1="271.4" y1="286.4" x2="271.4" y2="300.7"/>
			</g>
			<g>
				<path class="st3" d="M357.9,338.1L357.9,338.1c0,2.7-2.2,4.8-4.8,4.8H232.7v-9.6h120.3C355.7,333.3,357.9,335.4,357.9,338.1z"/>
				<path class="st0" d="M294,338.1L294,338.1c0,2.7-2.2,4.8-4.8,4.8h-56.5v-9.6h56.5C291.9,333.3,294,335.4,294,338.1z"/>
			</g>
			<g>
				<g>
					<path class="st4" d="M362.2,310v18.4c0,2.7-2.2,4.8-4.8,4.8H237v-28.1h120.3C360.1,305.2,362.2,307.3,362.2,310z"/>
					<path class="st6" d="M298.3,310v18.4c0,2.7-2.2,4.8-4.8,4.8H237v-28.1h56.5C296.2,305.2,298.3,307.3,298.3,310z"/>
				</g>
				<g>
					<line class="st10" x1="242.3" y1="310.8" x2="291.1" y2="310.8"/>
					<line class="st10" x1="242.3" y1="314.8" x2="291.1" y2="314.8"/>
					<line class="st10" x1="242.3" y1="318.8" x2="291.1" y2="318.8"/>
				</g>
			</g>
		</g>
		<g>
			<g>
				<path class="st2" d="M281.1,377.3v3c0,2.6-2.1,4.7-4.7,4.7H166.3v-12.3h110.2C279,372.6,281.1,374.7,281.1,377.3z"/>
				<path class="st0" d="M222.5,377.3v3c0,2.6-2.1,4.7-4.7,4.7h-51.6v-12.3h51.6C220.4,372.6,222.5,374.7,222.5,377.3z"/>
			</g>
			<g>
				<g>
					<path class="st2" d="M287.9,389.6v12.5c0,2.6-2.1,4.7-4.7,4.7H162.1v-21.8h121.1C285.8,384.9,287.9,387,287.9,389.6z"/>
					<path class="st0" d="M223.7,389.6v12.5c0,2.6-2.1,4.7-4.7,4.7h-56.9v-21.8H219C221.6,384.9,223.7,387,223.7,389.6z"/>
				</g>
				<g>
					<line class="st7" x1="166.5" y1="389.7" x2="215.3" y2="389.7"/>
					<line class="st7" x1="166.5" y1="393.8" x2="215.3" y2="393.8"/>
					<line class="st7" x1="166.5" y1="397.8" x2="215.3" y2="397.8"/>
				</g>
				<line class="st5" x1="233.9" y1="389.7" x2="233.9" y2="401.9"/>
				<line class="st5" x1="239.5" y1="389.7" x2="239.5" y2="401.9"/>
			</g>
			<g>
				<path class="st1" d="M278.4,411.4L278.4,411.4c0,2.7-2.1,4.7-4.7,4.7H157.3v-9.4h116.4C276.3,406.8,278.4,408.9,278.4,411.4z"/>
				<path class="st6" d="M216.6,411.4L216.6,411.4c0,2.7-2.1,4.7-4.7,4.7h-54.6v-9.4H212C214.5,406.8,216.6,408.9,216.6,411.4z"/>
			</g>
			<g>
				<g>
					<path class="st1" d="M288.8,420.8v12c0,2.6-2.1,4.7-4.7,4.7h-123v-21.4h123C286.7,416.2,288.8,418.3,288.8,420.8z"/>
					<path class="st0" d="M223.7,420.8v12c0,2.6-2.1,4.7-4.7,4.7h-57.9v-21.4H219C221.6,416.2,223.7,418.3,223.7,420.8z"/>
				</g>
				<line class="st5" x1="255" y1="420.4" x2="255" y2="433.5"/>
				<line class="st5" x1="250.3" y1="420.4" x2="250.3" y2="433.5"/>
				<line class="st5" x1="245.6" y1="420.4" x2="245.6" y2="433.5"/>
			</g>
		</g>
		<g>
			<g>
				<g>
					<g>
						<path class="st4" d="M390.7,368v7.1c0,2.6-2.1,4.7-4.7,4.7H266.8v-16.5H386C388.6,363.4,390.7,365.5,390.7,368z"/>
						<path class="st6" d="M327.5,368v7.1c0,2.6-2.1,4.7-4.7,4.7h-56v-16.5h56C325.4,363.4,327.5,365.5,327.5,368z"/>
					</g>
					<g>
						<line class="st10" x1="273.9" y1="367.5" x2="322.7" y2="367.5"/>
						<line class="st10" x1="273.9" y1="371.6" x2="322.7" y2="371.6"/>
					</g>
				</g>
				<g>
					<path class="st4" d="M252.4,407.8v2c0,2.6,2.1,4.7,4.7,4.7h123v-11.3h-123C254.5,403.1,252.4,405.2,252.4,407.8z"/>
					<path class="st0" d="M317.5,407.8v2c0,2.6,2.1,4.7,4.7,4.7h57.9v-11.3h-57.9C319.6,403.1,317.5,405.2,317.5,407.8z"/>
				</g>
				<g>
					<g>
						<path class="st8" d="M272.1,384.5v14c0,2.6,2.1,4.7,4.7,4.7h123v-23.3h-123C274.2,379.8,272.1,381.9,272.1,384.5z"/>
						<path class="st6" d="M337.3,384.5v14c0,2.6,2.1,4.7,4.7,4.7h57.9v-23.3h-57.9C339.4,379.8,337.3,381.9,337.3,384.5z"/>
					</g>
					<g>
						<line class="st10" x1="344.1" y1="385.8" x2="392.9" y2="385.8"/>
						<line class="st10" x1="344.1" y1="389.9" x2="392.9" y2="389.9"/>
						<line class="st10" x1="344.1" y1="393.9" x2="392.9" y2="393.9"/>
					</g>
					<rect x="282.1" y="387.7" class="st7" width="39.3" height="7.1"/>
				</g>
				<g>
					<g>
						<path class="st3" d="M260.7,419.1v13.9c0,2.6,2.1,4.6,4.6,4.6h122v-23.1h-122C262.8,414.4,260.7,416.5,260.7,419.1z"/>
						<path class="st0" d="M325.4,419.1v13.9c0,2.6,2.1,4.6,4.6,4.6h57.4v-23.1H330C327.4,414.4,325.4,416.5,325.4,419.1z"/>
					</g>
					<rect x="270.1" y="422.7" class="st5" width="44.1" height="5.8"/>
				</g>
			</g>
			<g>
				<g>
					<path class="st8" d="M339.2,424.1v8.8c0,2.6,2.1,4.7,4.7,4.7H454v-18.1H343.9C341.3,419.4,339.2,421.5,339.2,424.1z"/>
					<path class="st6" d="M397.8,424.1v8.8c0,2.6,2.1,4.7,4.7,4.7H454v-18.1h-51.6C399.9,419.4,397.8,421.5,397.8,424.1z"/>
				</g>
				<g>
					<line class="st10" x1="404" y1="424.4" x2="449.4" y2="424.4"/>
					<line class="st10" x1="404" y1="428.5" x2="449.4" y2="428.5"/>
				</g>
				<line class="st5" x1="387.9" y1="424.4" x2="387.9" y2="433.5"/>
				<line class="st5" x1="383.3" y1="424.4" x2="383.3" y2="433.5"/>
			</g>
		</g>
	</g>
	<g>
		<g>
			<g>
				<path class="st9" d="M232.2,420.1h-42.9c-5.9-17.2-10.5-36.1-13.9-52.1c-4.5-21.6-6.9-38-6.9-38l-14.2-63.4l42.1-38.6
					c0,0,11.6,59.7,17,93.7c2.2,13.7,4.7,28,7.2,41.2C226.6,394.2,232.2,420.1,232.2,420.1z"/>
				<path class="st5" d="M196.8,315c2.8,3.5,8.2,4.6,12.2,2.6"/>
			</g>
			<g>
				<path class="st6" d="M232.2,420.1h-42.9c-5.9-17.2-10.5-36.1-13.9-52.1l45.2-5.1C226.6,394.2,232.2,420.1,232.2,420.1z"/>
				<path class="st5" d="M181.2,381.8c13.8-1.1,27.6-2.3,41.4-3.4"/>
			</g>
			<g>
				<path class="st2" d="M186.8,415.4l6.5,22.1h45c1.5,0,2.4-1.8,1.5-3l-0.7-1c-2.8-3.7-4.8-8-5.7-12.6l-1.9-9
					c-0.9-4.3-6.4-5.6-9.1-2.1l-4.9,6.4L186.8,415.4z"/>
				<path class="st5" d="M193.4,434.2c12.9,0.4,26.2,1.4,39.1,1.8c1.2-2.5,4.9-3.3,7.1-1.6"/>
				<path class="st5" d="M232.4,419c-3.3,0.9-6.5,1.8-9.8,2.8c3.4,0.4,6.9,0.8,10.3,1.1c-2.8,1.2-5.6,2.3-8.4,3.5c3.3,0,6.7,0,10,0"
					/>
			</g>
		</g>
		<g>
			<g>
				<path class="st9" d="M151.1,422.1h-41.3c0,0-1.5-26.7-3.1-54.1c-0.8-13.5-1.6-27.2-2.3-38c-2.2-32.9-1.9-72,1.6-100.8l42.3,49
					l-0.8,51.8c0,0,2,16.6,3.2,39.2C151.7,385,152.1,403.9,151.1,422.1z"/>
				<path class="st5" d="M103,320.7c3,1.2,6.9-0.6,7.9-3.7"/>
			</g>
			<g>
				<path class="st6" d="M150.8,369.1c0.8,15.9,1.3,34.9,0.3,53h-41.3c0,0-1.5-26.7-3.1-54.1L150.8,369.1z"/>
				<path class="st5" d="M108.7,381.7c13.2,0.3,26.3,0.5,39.5,0.8"/>
			</g>
			<g>
				<path class="st2" d="M116,410.4l3.3,6.1l33.1-2v22.8h-52.3c-1.7,0-2.5-2-1.3-3.2l1.2-1.1c4.8-4.6,7.9-10.7,8.8-17.3l0.5-4
					C109.7,408.1,114.3,407.3,116,410.4z"/>
				<path class="st5" d="M101.2,432.3c0.8,0.8,1.6,1.6,2.4,2.3c16.2-0.4,32-0.7,48.2-1.2"/>
				<path class="st5" d="M107.8,420.4c2.3,0.5,4.5,1.1,6.8,1.6c-2.6,0.5-5.3,1-7.9,1.5c1.6,0.7,3.3,1.5,4.9,2.2
					c-2.4,0.4-4.9,0.8-7.3,1.2"/>
			</g>
		</g>
		<g>
			<path class="st3" d="M220.1,288L190.8,197l-77.7-3.6c0,0-16.9,37-14.6,103.6l57,0.8l1.9,6.8L220.1,288z"/>
			<line class="st5" x1="155.4" y1="297.8" x2="145.6" y2="243.5"/>
			<line class="st5" x1="98.5" y1="286.5" x2="153" y2="287.8"/>
			<line class="st5" x1="154.7" y1="293.7" x2="216.2" y2="279.1"/>
			<path class="st5" d="M145.7,286.9c0.9-7.6,2.1-15.2,3.8-22.7"/>
			<path class="st5" d="M191,212.1c5.8,22.8,11.6,45.7,17.3,68.5"/>
			<path class="st5" d="M111.3,201.5c23,0.5,46,1.1,68.9,1.6"/>
			<path class="st5" d="M174.6,203c3.3,10.4,10.6,19.5,20.1,25"/>
			<path class="st5" d="M118.2,201.9c-4.2,5.3-8.5,10.5-12.7,15.8"/>
		</g>
		<g>
			<path class="st9" d="M58.6,178.5c3,6.6,11.9,15.2,17.7,18.5c10.7,6.2,27.4,16.6,36.1-1.3l12.3-30.4L58.6,178.5z"/>
			<path class="st5" d="M90.7,181.5c1.4,2.8,1.6,6.1,0.6,9.1c-1,2.9-3.2,5.4-6.1,6.8"/>
			<path class="st5" d="M105.9,179.9c1.9,0.1,3.8,0.9,5.2,2.2c1.4,1.3,2.3,3.2,2.5,5.1"/>
		</g>
		<g>
			<path class="st8" d="M157.5,124.4c0,0,13.2,2.3,25.7,5.1c12.5,2.7,32.7,11.7,32.7,11.7l-19.4,26.9l-6.3-5.6l0.5,34.5l-78.4-1.3
				l7.5-23.9l-9.5-27.5c9.1-13,17.1-13.9,24.4-15.9C142.1,126.4,157.5,124.4,157.5,124.4z"/>
			<path class="st7" d="M191,163.5c-1.5-1.7-3-3.4-4.5-5.1c-3.3-3.7-5.6-8.7-5.4-13.7c0.2-5,2.5-9.8,6.4-13"/>
			<path class="st7" d="M119.6,171c3.2-13.3,6.5-26.6,9.7-39.9"/>
			<path class="st7" d="M141.1,128.7c-0.2,4.1,1.4,8.2,4.3,11c4.5,4.4,11.7,5.6,17.5,3.2c5.8-2.4,10.1-7.8,11.7-13.9"/>
		</g>
		<g>
			<path class="st1" d="M165,99.2c-3.1-3.4-7.8-4.6-12.3-4.4c-4.8,0.2-9.6,0.4-14.3,0.7c0.6,1.6,1.1,3.2,1.7,4.7
				c1.8-0.3,3.6-0.7,5.5-1c-1.5,1.2-3,2.4-4.5,3.6c1.6,4.5,3.3,8.9,4.9,13.5l11.6,3.4c4.6,0,8.9-3.3,10.4-7.6
				C169.4,107.6,168.1,102.5,165,99.2z"/>
			<g>
				<path class="st9" d="M169.2,128.6c-2-0.6-4.2-1.2-6.2-1.7c-0.3-2.5-0.7-5.2-1-7.8c2.1-0.2,4.1-1.7,4.8-3.7
					c0.7-2-0.1-4.5-1.9-5.7c-1.8-1.2-4.4-1-5.9,0.6c-1.4-2.6-2.9-5.5-4.3-8.1c-1.2,0-2.4-0.2-3.6-0.2c-2.3-0.1-4.6,1.4-5.5,3.6
					c-1.2,2.8-1.7,5.6-2.5,8.5c-0.5,2,0.4,4.3,2,5.7c1.6,1.4,3.7,2,5.7,2.5c0.1,1.6,0,3.1,0.1,4.7c-2,0.5-3.9,1.1-5.9,1.6
					c0.6,3.9,2.7,7.4,6.1,9.1c3.5,1.8,7.8,1.8,11.3,0C165.8,136.1,168.5,132.5,169.2,128.6z"/>
				<circle class="st8" cx="153.2" cy="112.3" r="0.8"/>
				<circle class="st8" cx="145.4" cy="110.7" r="0.8"/>
				<path class="st5" d="M161.6,113.4c0.8-0.3,1.6-0.7,2.4-1"/>
				<path class="st5" d="M150.4,122.4c1.8,0.2,3.6,0.1,5.4-0.3"/>
				<path class="st5" d="M161.2,119.1c0.4,0,0.8-0.1,1.2-0.1"/>
				<path class="st5" d="M148.8,110.8c-0.4,1-0.8,1.9-1.2,2.9c0.4,0,0.8,0.1,1.2,0.1"/>
				<path class="st5" d="M144.7,107.2c0.8,0,1.5,0.1,2.3,0.1"/>
				<path class="st5" d="M151.8,106.6c0.8,0,1.7,0.1,2.5,0.1"/>
				<path class="st5" d="M149.5,115.5c0.2,0.4,0.6,0.6,1,0.6c0.4,0,0.8-0.3,0.9-0.7"/>
			</g>
		</g>
		<g>
			<path class="st9" d="M236,159.5c-5.7-7.3-13.5-12.6-21.7-16.9l-16.8,23.8c1.5,1.4,3,2.7,4.5,4.1c-4.9,3.9-9.9,7.6-14.8,11.6
				c-5.3,4.2-8.9,10.2-11,16.6c-0.3,0.9,0.1,2.1,0.8,2.8s1.6,1.1,2.5,1.1c-0.3,1-0.1,2.2,0.7,3c0.7,0.8,1.9,1.2,3,0.9
				c-0.2,1,0.2,2,1,2.7c0.8,0.7,1.9,1,2.9,0.6c-0.1,0.9,0.3,1.6,0.9,2.3c0.6,0.7,1.5,1.1,2.3,1.1c2,0,4.2,0.5,6.2,0.7
				c0.5-1.1,1.2-2.2,1.8-3.3c0-0.2-0.1-0.4-0.1-0.6c-0.4-0.1-0.9-0.1-1.3,0c2.2-2.6,4.4-5.7,6.7-8.3c5.9-6.8,16.3-8,24.4-11.9
				c5.5-2.6,10-7.3,11.6-13.2C241.1,170.9,239.8,164.3,236,159.5z"/>
			<path class="st5" d="M201.6,170.9c3.9-2.8,7.7-5.6,11.6-8.5"/>
			<path class="st5" d="M194.3,211.9c1-0.8,2-1.5,3-2.3"/>
			<path class="st5" d="M186.9,208.8c0,0.7,0,1.5,0,2.2"/>
			<path class="st5" d="M183.1,205.5c0,0.5-0.1,1-0.1,1.5"/>
			<path class="st5" d="M179.4,201.7c-0.1,0.4-0.2,0.8-0.2,1.2"/>
		</g>
		<g>
			<g>
				<path class="st2" d="M89,155.3l-19,25.4l-9.8-57.9c-0.3-1.9,0.2-3.9,1.3-5.5l17.1-22.9L89,155.3z"/>
				<g>
					<polygon class="st2" points="121.6,178.6 70.9,185.8 60.6,124.8 111.3,117.7 					"/>
					<line class="st5" x1="66.7" y1="126.9" x2="75.1" y2="179.9"/>
					<line class="st5" x1="82" y1="139.9" x2="102.3" y2="136.9"/>
					<line class="st5" x1="83.4" y1="144.8" x2="102.3" y2="142"/>
				</g>
				<g>
					<path class="st0" d="M111.3,117.7l-0.6-4.3L85.4,115L82,94l-3.3,0.4l-17.1,23.1c-2.3,3.1,0.3,7.4,4.1,6.9L111.3,117.7z"/>
					<path class="st5" d="M82,94l-17.4,26.1c0,0,4.3-3.4,20.8-5.1"/>
				</g>
			</g>
			<g>
				<path class="st9" d="M76.5,172.2c-0.1-0.5-0.2-1.1-0.4-1.5c-0.2-0.5-0.9-0.8-1.4-0.8c-0.8,4.4-1.7,8.8-2.5,13.2
					c-1.6-6.5-3.5-12.8-5.2-19.3c-0.2-0.9-0.9-1.8-1.8-1.8c0,0.9-0.3,1.6-0.4,2.5c0.1-0.5-0.6-1.1-1-1c-1.7,5-3.6,10.1-5.3,15.1
					c3.6,7.3,10.1,12.9,17.8,15.5l2.3-7.7C78,181.6,77.3,176.9,76.5,172.2z"/>
				<path class="st5" d="M64.9,164.2c0,5.5-0.1,11.1-0.1,16.6"/>
				<path class="st5" d="M60.7,178.2c1-3.8,1.9-7.5,2.9-11.3"/>
				<path class="st5" d="M72.2,181.8c-0.2,0.7-0.3,1.4-0.5,2.1"/>
			</g>
		</g>
	</g>
	<g>
		<g>
			<path class="st8" d="M350.4,361.4l-0.2-0.3c-3.9-6.1-5-13.6-3.1-20.6l2.7-9.5l-40.4-10c0,0-8,24.2-7.7,23.8
				c0.3-0.4,24.4,19.4,24.4,19.4h22.7C350.3,364.2,351.2,362.6,350.4,361.4z"/>
			<path class="st7" d="M309.5,349.9c1.3-1.4,2.6-2.9,3.9-4.3c-0.1,2.8-0.2,5.6-0.3,8.4c0-0.2,0-0.5,0-0.7"/>
			<path class="st7" d="M332.7,340.5c3.4,0.3,6.7,0.7,10.1,1"/>
			<path class="st7" d="M332,345c3.4,0.3,6.9,0.6,10.3,1"/>
			<path class="st7" d="M332.2,349.4c3.7,0.3,7.4,0.6,11.1,0.9"/>
		</g>
		<g>
			<path class="st8" d="M381.3,382.5l6.7,24.2l47.2,14.5c1.7,0.5,3-1.4,2-2.8l0,0c-6.4-8.4-11.1-18-13.9-28.1l-4-14.9L381.3,382.5z"
				/>
			<path class="st7" d="M397.4,409c0.5-1.1,1-2.2,1.5-3.3c1.3,1.9,2.5,3.8,3.8,5.7"/>
			<path class="st7" d="M417.6,397.5c2.1-0.3,4.2-0.7,6.3-1"/>
			<path class="st7" d="M419.3,402c2.2-0.3,4.4-0.7,6.6-1"/>
			<path class="st7" d="M420.7,407c2.6-0.6,5.2-1.2,7.7-1.7"/>
		</g>
		<g>
			<path class="st2" d="M277.4,248.4c1.4,31,12.5,35.6,46.3,35.6c0,0-7.6,13.7-16.6,40l42.3,14.9l14.3-30.3l1.9,4.2
				c0,0,1.4,31.6,14.2,74.5l45.2-2c0,0-12.8-58-17.2-79c-4.4-21-11.5-33.9-24.5-49.9c-12.9-16-36.4-40.1-36.4-40.1L277.4,248.4z"/>
			<path class="st5" d="M323.4,284.5c2.7-6.2,6.1-12,10-17.5"/>
			<path class="st5" d="M364.3,248.4c6.3,1.9,11.6,6.7,14.2,12.7c2.6,6,2.5,13.2-0.4,19.1c-4.9,10.1-9.7,20.1-14.7,30.1"/>
			<path class="st5" d="M284,244.8c-1.5,7.6,0.9,15.9,6.3,21.5c5.4,5.6,13.5,8.4,21.2,7.2c8.7-1.3,16.4-6.5,22-13.2
				c-0.6,1.7,0.6,3.7,2.3,4.1c1.7,0.4,3.6-0.9,3.9-2.6c-9.3,21.1-18.6,42.3-27.8,63.4"/>
			<path class="st5" d="M368.5,299.4c4.3,29.5,10.7,58.7,19.2,87.2"/>
			<path class="st5" d="M393.9,295.8c3.3,2,7.7,1.8,10.8-0.4"/>
		</g>
		<path class="st8" d="M316.6,149c-3.7-3.5-9.1-5-14.2-4.5c-5.1,0.5-9.9,3-13.2,6.9c-2.8,3.4-5.4,7.2-6.6,11.4
			c-0.3,0.9-0.7,1.8-0.3,2.6c0.4,0.8,1.4,1.3,2.3,1.2c-0.3,0.6-0.3,1.5,0.2,2c0.5,0.5,1.3,0.7,2,0.4c0,0.8,0.5,1.6,1.2,1.9
			c0.7,0.3,1.6,0.1,2.2-0.4c0.8,1.8,2.8,2.9,4.7,2.8l18.1-18.1c0.9,0.5,2.2,0.2,2.8-0.6c0.6-0.9,0.4-2.2-0.5-2.9
			c0.7,0.1,1.2-0.3,1.5-0.9C317.2,150.3,317,149.5,316.6,149z"/>
		<g>
			<path class="st6" d="M296.9,169.2c0,0-13.4,6.6-21.7,10.5c-8.2,3.9-11.2,9.8-14.3,17.9c-3.1,8.1-8.7,22.2-10.4,40.2
				c-1.6,18,11.5,24.8,24.7,19.8l8.1-16.1l59.3-12.4l22.7-36.2c0,0-11.8-7.8-18.8-13.2s-12.4-6.6-21.1-7.4
				c-8.6-0.8-26.4-2.2-26.4-2.2L296.9,169.2z"/>
			<path class="st5" d="M268.6,184.2c2.3-0.7,5-0.5,7.1,0.7c2.2,1.2,3.8,3.2,4.5,5.6c3.2,11.8,2.2,24.4-0.8,36.3
				c-5.5-2.4-12-2.5-17.7-0.6"/>
			<path class="st5" d="M332.5,174.1c0.6,4.6,1.1,9.3,1.7,13.9"/>
			<path class="st5" d="M285.3,177.6c1,6.9,5.7,13.1,12.1,15.9c6.4,2.8,14.1,2.1,19.9-1.8c5.8-3.9,9.3-10.9,9-17.8"/>
		</g>
		<g>
			<path class="st11" d="M307.8,172.1c0.1-0.7,0.1-1.3,0.2-2c2.2-0.2,4.4-1.4,5.6-3.3c1.3-1.9,1.5-4.4,1-6.7
				c-0.4-2.1-0.8-4.1-1.3-6.3c-0.9,0.4-2.1,0.3-2.7-0.5c-0.2,0.9-1,1.7-1.9,1.8c-0.9,0.2-1.8-0.1-2.3-0.8c-0.2,0.6-0.7,1.1-1.3,1.2
				c-0.6,0.1-1.4-0.1-1.8-0.6c0.2,1-0.2,2.2-1.1,2.8c-0.8,0.7-2.1,0.9-3.1,0.5c0,0.8-0.7,1.6-1.5,1.7c-0.3-0.4-0.4-0.9-0.7-1.3
				c-1.8-0.6-3.9-0.1-5.2,1.2c-1.2,1.3-1.5,3.4-0.5,4.9c0.8,1.3,2.4,2.2,4,2.2c-0.2,1.5-0.4,3-0.6,4.5c-1.9,1-4,2.1-5.9,3.1
				c-0.1,5.9,3.3,11.3,8.4,14.2c5.1,3,11.8,2.9,16.8-0.1c5.1-3,8.1-9.6,7.9-15.5C317.4,173,312.6,172.6,307.8,172.1z"/>
			<circle class="st8" cx="304.2" cy="161.3" r="0.8"/>
			<circle class="st8" cx="312.4" cy="160" r="0.8"/>
			<path class="st5" d="M295.2,167.4c0.6,0,1.2,0,1.9,0"/>
			<path class="st5" d="M302.5,169.4c1.9,1.1,4.2,1.4,6.3,0.8"/>
			<path class="st5" d="M307.9,171.9c0,0.6-0.1,1.1-0.1,1.7"/>
			<path class="st5" d="M308.6,160.3c0.3,0.8,0.6,1.6,1,2.5c-0.4,0-0.8,0.2-1.1,0.2"/>
			<path class="st5" d="M305.6,164c0.3,0.6,1.1,0.9,1.7,0.6"/>
			<path class="st5" d="M302.9,158c0-0.6,0.5-1.2,1.1-1.4c0.6-0.2,1.3,0,1.7,0.5"/>
			<path class="st5" d="M311.5,156.5c0.6-0.1,1.2-0.2,1.9-0.3"/>
			<path class="st5" d="M294.1,161.6c0.7,0.2,1.5,0.4,2.2,0.5"/>
		</g>
		<g>
			<path class="st11" d="M404.7,228.2c3.7-3.8,6.3-20.3,1.8-26.7c-4.6-6.4-16.9-7.4-16.9-7.4l2.8,31.2L404.7,228.2z"/>
			<path class="st11" d="M313.4,215c-5.6-0.1-11.8,3.6-14.4,8.6l26.6,6.8c0.5-5,0.9-10,1.4-15C322.5,214.7,317.9,214.6,313.4,215z"
				/>
			<g>
				<path class="st0" d="M327,186.7l0.6-4.2l29.9,3c3.8,0.4,7.5,1.4,11,2.9l3.4,1.5l0,0c2.5-5.4,6.3-10,11.1-13.5l11.8-8.6l5.3,1.8
					c0,0-14.2,30.5-13.8,29.7S327,186.7,327,186.7z"/>
				<g>
					<path class="st3" d="M392.9,227.6l-23,19c-2.5,2-5.7,3-8.8,2.6l-41.3-4.6l7.3-57.8l41.3,4.6c3.2,0.4,6.4-0.6,8.8-2.6l23-19
						L392.9,227.6z"/>
					<line class="st5" x1="368.5" y1="192.2" x2="361.3" y2="250"/>
					<line class="st5" x1="376.5" y1="189.8" x2="369.3" y2="247.6"/>
					<line class="st5" x1="334.7" y1="203.3" x2="358.3" y2="205.9"/>
					<line class="st5" x1="334.3" y1="207" x2="357.9" y2="209.7"/>
					<line class="st5" x1="333.9" y1="210.4" x2="357.5" y2="213.1"/>
					<polygon class="st5" points="391.2,193.7 383.3,200.2 380.9,221.3 388.6,214.9 					"/>
				</g>
			</g>
			<g>
				<path class="st11" d="M403.3,206.2c-5.1,2.1-10.2,4.1-15.3,6.2c-0.5,0.2-1.1,0.4-1.5,0.8c-0.4,0.4-0.7,1-0.6,1.6
					c1,0,2.2,0,3.2-0.1c-0.8,0.2-1.6,0.5-2.4,0.7c-0.4,0.1-0.8,0.2-1.2,0.5c-0.5,0.4-0.7,1-0.6,1.6c2.9,0.4,6,0.9,8.9,1.3
					c-2.1,0.1-4.3,0.2-6.4,0.3c-0.5,0-1,0-1.4,0.3s-0.7,0.7-0.6,1.2c3.3,1.3,6.7,2.7,10,4c-1.7-0.1-3.4-0.2-5-0.2
					c-0.4,0-0.9,0-1.3,0.2c-0.4,0.2-0.7,0.7-0.6,1.1c3,1.1,5.7,2.1,8.7,3.2c2.3,0.8,5.1,0.4,7.4-0.4L403.3,206.2z"/>
				<path class="st5" d="M395.3,209.4c2.2-1.1,4.4-2.1,6.6-3.2"/>
				<path class="st5" d="M387.8,214.7c4.6-0.2,9.2-0.5,13.8-0.7"/>
				<path class="st5" d="M391.2,218.3c3.1,0.5,6.2,1.1,9.4,1.6"/>
				<path class="st5" d="M393.3,223.6c2.1,0.6,4.1,1.2,6.2,1.8"/>
			</g>
			<g>
				<path class="st11" d="M335.1,235.9c-0.4-0.4-1-0.5-1.6-0.5c-4-0.2-8.2-0.3-12.2-0.5c5.3-1.3,10.6-2,15.9-3.3
					c0-1-0.7-2.1-1.6-2.2c0.1-0.6-0.1-1.3-0.6-1.8c-0.4-0.5-1.1-0.5-1.7-0.7c-5.6-2.1-11.2-4.3-16.8-6.4l-4.2-3.1
					c-5.5-0.4-11,1.3-16.3,2.9c-9.6,2.9-19.6,5.7-28.9,9.5c-4.4,1.8-7.7,6.1-8.4,10.8c-0.7,4.7,1.3,9.8,5,12.8
					c3.7,3,9.1,3.7,13.7,2.2c8.9-3,17.9-6.6,26.2-10.9c4,1.4,8.1,2.7,12.3,3.1c5.1-2.6,10.4-5.1,15.4-7.6c0.2-0.4-0.1-0.9-0.5-1.1
					c1.6-0.6,3.2-0.9,4.9-1.4C335.7,236.9,335.5,236.3,335.1,235.9z"/>
				<path class="st5" d="M319.3,241.1c4-0.8,8-1.6,12-2.5"/>
				<path class="st5" d="M318.1,235.1c1.9-0.3,3.9-0.7,5.8-1"/>
				<path class="st5" d="M317.2,229.1c6.2,0.2,12.5,0.5,18.7,0.7"/>
				<path class="st5" d="M316.2,219.5c2.3,1.1,4.6,2.1,6.9,3.2"/>
			</g>
		</g>
	</g>
</g>
</svg>
